<?xml version="1.0" standalone="no"?><!DOCTYPE svg PUBLIC "-//W3C//DTD SVG 1.1//EN" "http://www.w3.org/Graphics/SVG/1.1/DTD/svg11.dtd"><svg t="1632964743273" class="icon" viewBox="0 0 1024 1024" version="1.1" xmlns="http://www.w3.org/2000/svg" p-id="4286" xmlns:xlink="http://www.w3.org/1999/xlink" width="200" height="200"><defs><style type="text/css"></style></defs><path d="M512.5 960c-56.7 0-112.3-17.1-165.3-50.9-47.5-30.3-90.6-72.5-128.3-125.5-35.3-49.6-64.5-107.6-84.4-167.8-20.3-61.2-31-124.8-31-183.8 0-60.2 11-115 32.6-162.8 20.8-45.9 51.2-85.2 90.5-116.9C298.2 94.5 397.1 64 512.5 64s214.2 30.5 285.9 88.3c39.3 31.7 69.7 71 90.5 116.9 21.6 47.8 32.6 102.6 32.6 162.8 0 59.1-10.7 122.6-31 183.8-20 60.2-49.1 118.2-84.4 167.8-37.7 53-80.9 95.2-128.3 125.5-53 33.8-108.6 50.9-165.3 50.9z m0-814c-204.7 0-327 106.9-327 286 0 102.1 37.5 215.8 100.2 304 65.1 91.5 145.6 142 226.8 142 81.1 0 161.7-50.4 226.8-142 62.7-88.2 100.2-201.9 100.2-304-0.1-179.1-122.3-286-327-286z" p-id="4287"></path><path d="M590.9 735.4c-32.3 0-60-23-65.4-55.9-6.9-42.3-8-102.5 26.4-149.8 34.4-47.2 92-64.8 134.4-71.2 36.5-5.5 69.8 18.7 75.8 55.1 6.9 42.3 8 102.5-26.4 149.8-34.4 47.2-92 64.8-134.4 71.2-3.5 0.5-7 0.8-10.4 0.8zM683 542.5c-20.7 4.8-50 14.9-64.9 35.4-14.9 20.5-15.5 51.5-13.7 72.6 20.7-4.8 50-14.9 64.9-35.4 15-20.4 15.6-51.4 13.7-72.6zM434.1 735.4c-3.4 0-6.9-0.3-10.4-0.8-42.3-6.4-100-24-134.4-71.2C255 616.2 256 555.9 263 513.7c6-36.5 39.3-60.7 75.8-55.2 42.3 6.4 100 24 134.4 71.2 34.4 47.2 33.3 107.5 26.4 149.8-5.5 32.9-33.3 55.9-65.5 55.9z m-92.2-192.9c-1.8 21.2-1.2 52.1 13.7 72.6 14.9 20.5 44.2 30.6 64.9 35.4 1.8-21.2 1.2-52.1-13.7-72.6-14.9-20.5-44.2-30.6-64.9-35.4z" p-id="4288"></path></svg>